<?xml version="1.0" encoding="utf-8"?>
<!-- Generator: Adobe Illustrator 25.4.1, SVG Export Plug-In . SVG Version: 6.00 Build 0)  -->
<svg version="1.1" id="Layer_1" xmlns="http://www.w3.org/2000/svg" xmlns:xlink="http://www.w3.org/1999/xlink" x="0px" y="0px"
	 viewBox="0 0 215.4 29.9" style="enable-background:new 0 0 215.4 29.9;" xml:space="preserve">
<style type="text/css">
	.st0{fill:#FFFFFF;}
	.st1{fill:url(#SVGID_1_);}
</style>
<g>
	<g>
		<path class="st0" d="M4.7,21.8V13H0.9V8.6h3.7V1.7h5.1v6.9h4.8V13H9.8v8.9c0,1,0.5,1.5,1.5,1.5h2.9v4.7h-2.9
			C7.2,28.1,4.7,25.7,4.7,21.8z"/>
		<path class="st0" d="M20.5,19.6v1c0,2.6,1.2,3.6,4,3.6c2.8,0,3.8-0.7,4-2.6h5.2c-1.1,3.7-4.8,6.6-9.2,6.6c-5.4,0-9.6-4-9.6-9.8
			c0-5.4,4-10.2,9.7-10.2c5.1,0,9.2,4.4,9.2,9.6v1.7H20.5z M20.5,15.7v0.5h7.9v-0.4c0-2.6-1-3.6-3.8-3.6
			C21.8,12.1,20.5,13.2,20.5,15.7z"/>
		<path class="st0" d="M35,18.2c0-5.7,4.1-10,9.5-10c4.7,0,8.4,3.2,9.2,8h-5.4c-0.2-2.8-1.1-3.7-3.9-3.7c-2.7,0-3.9,1.2-3.9,4v3.2
			c0,2.8,1.2,4.1,3.9,4.1c2.7,0,3.7-0.9,3.9-3.8h5.4c-0.8,4.9-4.5,8.1-9.2,8.1C39.1,28.2,35,23.9,35,18.2z"/>
		<path class="st0" d="M73.3,15.8v12.1h-5.1V15.8c0-2.1-1.1-3-3.6-3c-2.7,0-3.8,1-3.8,3.2v11.9h-5.2V1.7h5.2v9.2
			c1.5-1.7,3.5-2.6,5.9-2.6C70.4,8.2,73.3,11.5,73.3,15.8z"/>
		<path class="st0" d="M74.9,8.6h4.9l1.5,15.2h1.8l1.9-15.2h8.5l1.9,15.2h1.8l1.5-15.2h5l-2.6,19.3h-9.7l-1.7-15.2h-1.2L87,27.9
			h-9.6L74.9,8.6z"/>
		<path class="st0" d="M104.5,18.2c0-5.7,4.2-10,9.8-10c5.7,0,9.8,4.3,9.8,10c0,5.7-4.2,10-9.8,10S104.5,23.9,104.5,18.2z
			 M118.6,19.9v-3.3c0-2.8-1.3-4-4.3-4c-2.9,0-4.3,1.3-4.3,4v3.3c0,2.8,1.4,4,4.3,4C117.3,23.9,118.6,22.7,118.6,19.9z"/>
		<path class="st0" d="M143.7,15.8v12h-5.2V15.8c0-2.1-1.2-3.1-3.6-3.1c-2.6,0-3.8,1-3.8,3.2v11.9h-5.2V8.6h4.8v2.7
			c1.5-1.9,3.7-3.1,6.2-3.1C140.7,8.2,143.7,11.6,143.7,15.8z"/>
		<path class="st0" d="M164.5,1.7v26.2h-4.8v-2.2c-1.3,1.5-3.6,2.5-5.6,2.5c-5,0-8.8-4.3-8.8-10c0-5.5,4-10,9-10
			c2,0,3.9,0.8,5.1,2.2V1.7H164.5z M159.4,16.6c0-2.8-1.3-4-4.3-4c-2.9,0-4.3,1.3-4.3,4v3.3c0,2.8,1.4,4,4.3,4c3,0,4.3-1.3,4.3-4
			V16.6z"/>
		<path class="st0" d="M166.3,18.2c0-5.7,4.2-10,9.8-10c5.7,0,9.8,4.3,9.8,10c0,5.7-4.2,10-9.8,10S166.3,23.9,166.3,18.2z
			 M180.4,19.9v-3.3c0-2.8-1.3-4-4.3-4c-2.9,0-4.3,1.3-4.3,4v3.3c0,2.8,1.4,4,4.3,4C179.1,23.9,180.4,22.7,180.4,19.9z"/>
		<path class="st0" d="M192.9,19.6v1c0,2.6,1.2,3.6,4,3.6c2.8,0,3.8-0.7,4-2.6h5.2c-1.1,3.7-4.8,6.6-9.2,6.6c-5.4,0-9.6-4-9.6-9.8
			c0-5.4,4-10.2,9.7-10.2c5.1,0,9.2,4.4,9.2,9.6v1.7H192.9z M192.9,15.7v0.5h7.9v-0.4c0-2.6-1-3.6-3.8-3.6
			C194.1,12.1,192.9,13.2,192.9,15.7z"/>
		<linearGradient id="SVGID_1_" gradientUnits="userSpaceOnUse" x1="208.9771" y1="27.564" x2="212.9677" y2="21.649">
			<stop  offset="0" style="stop-color:#FF4E50"/>
			<stop  offset="1" style="stop-color:#F9D423"/>
		</linearGradient>
		<path class="st1" d="M207.5,24.6c0-2.1,1.4-3.5,3.5-3.5c2,0,3.5,1.5,3.5,3.5c0,2-1.4,3.5-3.5,3.5
			C208.9,28.1,207.5,26.7,207.5,24.6z"/>
	</g>
</g>
</svg>
